<svg width="135.000000" height="44.000000" viewBox="0 0 135 44" fill="none" xmlns="http://www.w3.org/2000/svg" xmlns:xlink="http://www.w3.org/1999/xlink">
	<desc>
			Created with Pixso.
	</desc>
	<defs/>
	<rect id="Rectangle 383" y="-0.372314" rx="16.000000" width="44.000000" height="44.000000" fill="#40BFFF" fill-opacity="1.000000"/>
	<path id="Vector 40 (Stroke)" d="M31.06 19.89C32.01 20.85 32.01 22.4 31.06 23.35L23.72 30.68C22.77 31.64 21.22 31.64 20.27 30.68L12.93 23.35C11.98 22.4 11.98 20.85 12.93 19.89L20.27 12.56C21.22 11.61 22.77 11.61 23.72 12.56L31.06 19.89ZM22 17.75L18.12 21.62L22 25.5L25.87 21.62L22 17.75Z" fill="#FFFFFF" fill-opacity="1.000000" fill-rule="evenodd"/>
	<path id="E-Comm" d="M71.78 19.93Q71.08 21.32 71.08 23.06Q71.08 24.82 71.79 26.21Q71.84 26.3 71.89 26.39Q72.31 27.15 72.91 27.74Q73.45 28.28 74.15 28.67Q74.34 28.78 74.54 28.87Q75.84 29.49 77.44 29.49Q79.26 29.49 80.65 28.72Q80.98 28.54 81.29 28.31Q81.86 27.89 82.29 27.36Q83.08 26.4 83.43 25.08L80.05 25.08Q79.77 25.66 79.32 26.04Q79.16 26.18 78.97 26.29Q78.85 26.36 78.72 26.42Q78.13 26.7 77.4 26.7Q76.54 26.7 75.87 26.34Q75.44 26.1 75.09 25.71Q75.01 25.62 74.94 25.52Q74.22 24.57 74.22 23.06Q74.22 21.56 74.94 20.61Q75.01 20.51 75.09 20.42Q75.44 20.03 75.87 19.79Q76.54 19.43 77.4 19.43Q78.13 19.43 78.72 19.71Q78.85 19.77 78.97 19.84Q79.16 19.95 79.32 20.08Q79.77 20.46 80.05 21.05L83.43 21.05Q83.09 19.75 82.32 18.79Q81.87 18.25 81.29 17.81Q80.96 17.57 80.6 17.37Q79.22 16.62 77.44 16.62Q75.85 16.62 74.56 17.23Q74.35 17.33 74.15 17.44Q73.48 17.82 72.94 18.34Q72.32 18.94 71.89 19.73Q71.84 19.83 71.78 19.93ZM54.5 21.78L54.5 19.23L59.17 19.23L59.17 16.77L51.43 16.77L51.43 29.4L59.17 29.4L59.17 26.94L54.5 26.94L54.5 24.16L58.62 24.16L58.62 21.78L54.5 21.78ZM87.45 29.02Q88.55 29.55 89.89 29.55Q91.18 29.55 92.26 29.06Q92.41 28.99 92.56 28.92Q93.14 28.61 93.6 28.19Q94.09 27.72 94.45 27.11Q94.51 27.01 94.56 26.91Q95.15 25.8 95.15 24.38Q95.15 22.92 94.54 21.79Q94.5 21.72 94.46 21.65Q94.09 21.01 93.57 20.53Q93.13 20.13 92.59 19.84Q92.45 19.77 92.31 19.7Q91.23 19.21 89.93 19.21Q88.62 19.21 87.54 19.71Q87.4 19.77 87.26 19.84Q86.74 20.12 86.31 20.51Q85.77 20.99 85.39 21.65Q85.36 21.71 85.33 21.77Q84.71 22.91 84.71 24.38Q84.71 25.95 85.38 27.12Q85.74 27.74 86.25 28.21Q86.69 28.62 87.24 28.92Q87.34 28.97 87.45 29.02ZM112.02 19.91Q111.03 19.25 109.6 19.25Q109.01 19.25 108.46 19.41Q108.04 19.54 107.64 19.77Q106.97 20.16 106.51 20.72Q106.35 20.91 106.22 21.12Q105.94 20.63 105.55 20.26Q105.23 19.95 104.82 19.74Q104.76 19.7 104.69 19.67Q103.85 19.25 102.8 19.25Q101.85 19.25 101.09 19.62Q100.48 19.92 100.05 20.38Q99.95 20.49 99.86 20.62L99.86 19.35L96.79 19.35L96.79 29.4L99.86 29.4L99.86 23.95Q99.86 23.04 100.31 22.52Q100.34 22.48 100.38 22.44Q100.48 22.34 100.59 22.26Q101.07 21.91 101.79 21.91Q102.51 21.91 102.98 22.25Q103.1 22.34 103.2 22.44Q103.24 22.48 103.27 22.52Q103.72 23.04 103.72 23.95L103.72 29.4L106.78 29.4L106.78 23.95Q106.78 23.04 107.22 22.52Q107.26 22.48 107.29 22.44Q107.39 22.34 107.51 22.25Q107.98 21.91 108.7 21.91Q109.43 21.91 109.9 22.26Q110.02 22.34 110.12 22.44Q110.15 22.48 110.18 22.52Q110.63 23.04 110.63 23.95L110.63 29.4L113.69 29.4L113.69 23.53Q113.69 21.74 112.82 20.65Q112.71 20.51 112.58 20.38Q112.32 20.12 112.02 19.91ZM131.08 19.91Q130.1 19.25 128.66 19.25Q128.07 19.25 127.52 19.41Q127.1 19.54 126.7 19.77Q126.03 20.16 125.57 20.72Q125.41 20.91 125.28 21.12Q125 20.63 124.61 20.26Q124.29 19.95 123.89 19.74Q123.82 19.7 123.75 19.67Q122.91 19.25 121.86 19.25Q120.91 19.25 120.15 19.62Q119.54 19.92 119.12 20.38Q119.02 20.49 118.93 20.62L118.93 19.35L115.85 19.35L115.85 29.4L118.93 29.4L118.93 23.95Q118.93 23.04 119.37 22.52Q119.4 22.48 119.44 22.44Q119.54 22.34 119.65 22.26Q120.13 21.91 120.85 21.91Q121.57 21.91 122.04 22.25Q122.16 22.34 122.27 22.44Q122.3 22.48 122.33 22.52Q122.78 23.04 122.78 23.95L122.78 29.4L125.84 29.4L125.84 23.95Q125.84 23.04 126.29 22.52Q126.32 22.48 126.35 22.44Q126.46 22.34 126.57 22.25Q127.05 21.91 127.76 21.91Q128.49 21.91 128.96 22.26Q129.08 22.34 129.18 22.44Q129.21 22.48 129.24 22.52Q129.69 23.04 129.69 23.95L129.69 29.4L132.75 29.4L132.75 23.53Q132.75 21.74 131.88 20.65Q131.77 20.51 131.64 20.38Q131.38 20.12 131.08 19.91ZM68.9 24.36L68.9 21.8L60.98 21.8L60.98 24.36L68.9 24.36ZM90.68 26.73Q90.31 26.88 89.89 26.88Q89.44 26.88 89.07 26.72Q88.71 26.55 88.42 26.24Q87.84 25.59 87.84 24.38Q87.84 23.16 88.43 22.52Q88.71 22.23 89.04 22.07Q89.44 21.88 89.93 21.88Q90.36 21.88 90.72 22.03Q91.1 22.19 91.41 22.53Q91.42 22.53 91.42 22.54Q92.02 23.19 92.02 24.38Q92.02 25.54 91.44 26.19Q91.42 26.21 91.39 26.24Q91.07 26.57 90.68 26.73Z" fill="#22262A" fill-opacity="1.000000" fill-rule="evenodd"/>
</svg>
